<svg width="50" height="43" viewBox="0 0 50 43" fill="none" xmlns="http://www.w3.org/2000/svg">
<path d="M33.0479 42.8364L23.2884 33.0768L25.9229 30.4423L33.0479 37.5673L47.221 23.3942L49.8556 26.0287L33.0479 42.8364ZM23.7499 16.2499L43.3653 3.74991H4.13455L23.7499 16.2499ZM23.7499 20.1441L3.74991 7.35558V32.9806C3.74991 33.205 3.82203 33.3893 3.96627 33.5335C4.11051 33.6778 4.29482 33.7499 4.5192 33.7499H16.9374L20.6873 37.4998H4.5192C3.25638 37.4998 2.18748 37.0623 1.31249 36.1873C0.437496 35.3123 0 34.2434 0 32.9806V4.5192C0 3.25638 0.437496 2.18748 1.31249 1.31249C2.18748 0.437496 3.25638 0 4.5192 0H42.9806C44.2434 0 45.3123 0.437496 46.1873 1.31249C47.0623 2.18748 47.4998 3.25638 47.4998 4.5192V16.1154L43.7499 19.8653V7.35558L23.7499 20.1441Z" fill="#13A4EC"/>
</svg>
