<svg width="34" height="38" viewBox="0 0 34 38" fill="none" xmlns="http://www.w3.org/2000/svg">
<path d="M17 1.0625C17.7293 1.0625 18.352 1.27305 18.9062 1.69531L18.9121 1.7002L31.6621 11.2627L31.6719 11.2695C32.064 11.5572 32.3716 11.9211 32.5996 12.376C32.827 12.8297 32.9386 13.3038 32.9375 13.8105V32.9375C32.9375 33.8219 32.6345 34.553 31.999 35.1885C31.3635 35.824 30.6332 36.1261 29.751 36.125H21.25C20.9161 36.125 20.6866 36.0233 20.4893 35.8252C20.3149 35.6501 20.2151 35.4511 20.1924 35.1807L20.1875 35.0596V23.375H13.8125V35.0625C13.8125 35.3964 13.711 35.6269 13.5117 35.8262C13.3126 36.0252 13.0836 36.1257 12.7529 36.125H4.25C3.36501 36.125 2.6347 35.8222 2.00098 35.1885C1.44648 34.6339 1.14461 34.0048 1.07715 33.2617L1.0625 32.9365V13.8125C1.0625 13.305 1.17459 12.8304 1.40234 12.376C1.63065 11.9204 1.93807 11.5561 2.3291 11.2686L2.33789 11.2627L15.0879 1.7002L15.0938 1.69531C15.648 1.27305 16.2707 1.0625 17 1.0625ZM30.8125 13.2812L30.3877 12.9629L17.6377 3.40039L17 2.92188L16.3623 3.40039L3.6123 12.9629L3.1875 13.2812V34H11.6875V22.3125C11.6875 21.9786 11.7892 21.7491 11.9873 21.5518C12.1624 21.3774 12.3614 21.2776 12.6318 21.2549L12.7529 21.25H21.25C21.5839 21.25 21.8144 21.3515 22.0137 21.5508C22.2127 21.7499 22.3132 21.9788 22.3125 22.3096V34H30.8125V13.2812Z" fill="#729EC9" stroke="#8892B0" stroke-width="2.125"/>
</svg>
