<svg width="31" height="28" viewBox="0 0 31 28" fill="none" xmlns="http://www.w3.org/2000/svg">
<path d="M3.44444 6.32258C3.44444 2.82823 6.1408 0 9.47222 0C12.8036 0 15.5 2.82823 15.5 6.32258C15.5 9.81694 12.8036 12.6452 9.47222 12.6452C6.1408 12.6452 3.44444 9.81694 3.44444 6.32258ZM0 25.2903C0 19.8032 4.24097 15.3548 9.47222 15.3548C14.7035 15.3548 18.9444 19.8032 18.9444 25.2903V25.629C18.9444 26.9387 17.9326 28 16.684 28H2.26042C1.01181 28 0 26.9387 0 25.629V25.2903ZM23.25 2.70968C26.1024 2.70968 28.4167 5.1371 28.4167 8.12903C28.4167 11.121 26.1024 13.5484 23.25 13.5484C20.3976 13.5484 18.0833 11.121 18.0833 8.12903C18.0833 5.1371 20.3976 2.70968 23.25 2.70968ZM23.25 16.2581C27.5286 16.2581 31 19.8992 31 24.3871V25.6516C31 26.95 29.999 28 28.7611 28H20.9681C21.3233 27.2944 21.5278 26.4871 21.5278 25.629V25.2903C21.5278 22.3831 20.5913 19.7073 19.0252 17.5734C20.2415 16.7435 21.6946 16.2581 23.25 16.2581Z" fill="#8892B0"/>
</svg>
