<svg width="28" height="30" viewBox="0 0 28 30" fill="none" xmlns="http://www.w3.org/2000/svg">
<path fill-rule="evenodd" clip-rule="evenodd" d="M3.03578 10.9874C3.03578 8.07336 4.19093 5.27867 6.24712 3.21814C8.30331 1.1576 11.0921 0 14 0C16.9079 0 19.6967 1.1576 21.7529 3.21814C23.8091 5.27867 24.9642 8.07336 24.9642 10.9874V16.8955L27.8181 22.6152C27.9494 22.8785 28.0115 23.171 27.9983 23.4651C27.9851 23.7591 27.8971 24.0449 27.7426 24.2953C27.5882 24.5456 27.3725 24.7523 27.1159 24.8956C26.8594 25.0389 26.5705 25.1141 26.2768 25.1141H20.0679C19.7195 26.4612 18.9346 27.6542 17.8363 28.5059C16.7381 29.3576 15.3887 29.8197 14 29.8197C12.6113 29.8197 11.2619 29.3576 10.1637 28.5059C9.06543 27.6542 8.28049 26.4612 7.93209 25.1141H1.7232C1.42949 25.1141 1.14063 25.0389 0.884076 24.8956C0.627522 24.7523 0.411786 24.5456 0.257358 24.2953C0.102931 24.0449 0.0149391 23.7591 0.00174063 23.4651C-0.0114578 23.171 0.0505752 22.8785 0.181948 22.6152L3.03578 16.8955V10.9874ZM11.2871 25.1141C11.5621 25.5913 11.9575 25.9875 12.4338 26.263C12.91 26.5385 13.4501 26.6836 14 26.6836C14.5499 26.6836 15.09 26.5385 15.5662 26.263C16.0425 25.9875 16.4379 25.5913 16.7129 25.1141H11.2871ZM14 3.13926C11.9229 3.13926 9.93094 3.96611 8.46223 5.43793C6.99352 6.90974 6.16841 8.90595 6.16841 10.9874V16.8955C6.16838 17.3826 6.05523 17.863 5.83792 18.2987L4.00533 21.9748H23.9962L22.1636 18.2987C21.9458 17.8632 21.8321 17.3827 21.8316 16.8955V10.9874C21.8316 8.90595 21.0065 6.90974 19.5378 5.43793C18.0691 3.96611 16.0771 3.13926 14 3.13926Z" fill="#8892B0"/>
</svg>
