<svg width="36" height="36" viewBox="0 0 36 36" fill="none" xmlns="http://www.w3.org/2000/svg">
<path d="M18 7.36377C19.5188 7.36389 20.9758 7.96754 22.0498 9.0415C23.1236 10.1155 23.7266 11.5726 23.7266 13.0913C23.7264 14.6101 23.1238 16.0671 22.0498 17.1411C20.9758 18.2151 19.5188 18.8178 18 18.8179C16.4812 18.8179 15.0242 18.2149 13.9502 17.1411C12.8762 16.0671 12.2726 14.6101 12.2725 13.0913C12.2725 11.5723 12.8761 10.1156 13.9502 9.0415C15.0243 7.96743 16.481 7.36377 18 7.36377ZM18 8.99951C16.915 8.99951 15.8736 9.43056 15.1064 10.1978C14.3393 10.9649 13.9082 12.0063 13.9082 13.0913C13.9083 14.1761 14.3394 15.2168 15.1064 15.9839C15.8736 16.7511 16.915 17.1821 18 17.1821C19.0848 17.182 20.1255 16.751 20.8926 15.9839C21.6597 15.2168 22.0907 14.1761 22.0908 13.0913C22.0908 12.0063 21.6598 10.9649 20.8926 10.1978C20.1255 9.43069 19.0848 8.99963 18 8.99951Z" fill="#729EC9" stroke="#8892B0" stroke-width="1.63636"/>
<path d="M18 0.818359C27.489 0.818359 35.1816 8.51096 35.1816 18C35.1816 27.489 27.489 35.1816 18 35.1816C8.51096 35.1816 0.818359 27.489 0.818359 18C0.818359 8.51096 8.51096 0.818359 18 0.818359ZM18.1055 23.7275C16.1312 23.7261 14.1856 24.2013 12.4346 25.1133C10.6832 26.0255 9.17841 27.3478 8.04785 28.9668L7.6123 29.5898L8.20215 30.0693C10.97 32.3231 14.4316 33.5516 18.001 33.5459L18 33.5449C21.6321 33.5503 25.1504 32.2789 27.9395 29.9521L28.5234 29.4648L28.0811 28.8477C26.9456 27.2622 25.4478 25.9706 23.7129 25.0801C21.978 24.1896 20.0556 23.7258 18.1055 23.7275ZM22.9756 3.27441C20.6371 2.48444 18.1434 2.26215 15.7021 2.62695C13.261 2.99179 10.9418 3.93303 8.93652 5.37207C6.93118 6.81116 5.29708 8.70744 4.16992 10.9033C3.04288 13.0991 2.45441 15.5318 2.4541 18C2.4541 21.6093 3.68613 24.9343 5.75 27.5732L6.40332 28.4072L7.0459 27.5645C8.3431 25.8618 10.0161 24.4817 11.9346 23.5322C13.853 22.5828 15.965 22.0895 18.1055 22.0908H18.1074C20.2203 22.0884 22.3059 22.5682 24.2051 23.4941C26.1043 24.4202 27.7671 25.7683 29.0664 27.4346L29.7188 28.2715L30.3623 27.4277C31.8588 25.4649 32.8664 23.1737 33.3018 20.7441C33.7371 18.3145 33.5881 15.8155 32.8662 13.4551C32.1443 11.0947 30.8702 8.94035 29.1504 7.16992C27.4306 5.39957 25.3139 4.0644 22.9756 3.27441Z" fill="#729EC9" stroke="#8892B0" stroke-width="1.63636"/>
</svg>
