<svg width="35" height="35" viewBox="0 0 35 35" fill="none" xmlns="http://www.w3.org/2000/svg">
<path d="M17.2316 28.6583H33.231M17.2316 28.6583C17.2316 29.1086 17.143 29.5545 16.9706 29.9705C16.7983 30.3865 16.5458 30.7645 16.2274 31.0829C15.909 31.4013 15.531 31.6538 15.115 31.8261C14.699 31.9984 14.2531 32.0871 13.8029 32.0871C13.3526 32.0871 12.9067 31.9984 12.4907 31.8261C12.0747 31.6538 11.6967 31.4013 11.3783 31.0829C11.0599 30.7645 10.8074 30.3865 10.6351 29.9705C10.4628 29.5545 10.3741 29.1086 10.3741 28.6583C10.3741 28.2081 10.4628 27.7622 10.6351 27.3462C10.8074 26.9302 11.0599 26.5522 11.3783 26.2338C11.6967 25.9154 12.0747 25.6629 12.4907 25.4905C12.9067 25.3182 13.3526 25.2295 13.8029 25.2295C14.2531 25.2295 14.699 25.3182 15.115 25.4905C15.531 25.6629 15.909 25.9154 16.2274 26.2338C16.5458 26.5522 16.7983 26.9302 16.9706 27.3462C17.143 27.7622 17.2316 28.2081 17.2316 28.6583ZM33.231 28.6583L28.6601 24.0874M33.231 28.6583L28.6601 33.2292M8.08984 4.65926C8.08984 5.56863 8.45109 6.44076 9.09411 7.08378C9.73714 7.7268 10.6093 8.08805 11.5186 8.08805C12.428 8.08805 13.3001 7.7268 13.9432 7.08378C14.5862 6.44076 14.9474 5.56863 14.9474 4.65926C14.9474 3.74989 14.5862 2.87776 13.9432 2.23474C13.3001 1.59172 12.428 1.23047 11.5186 1.23047C10.6093 1.23047 9.73714 1.59172 9.09411 2.23474C8.45109 2.87776 8.08984 3.74989 8.08984 4.65926ZM17.2316 16.0877C17.2316 16.9971 17.5929 17.8692 18.2359 18.5123C18.8789 19.1553 19.7511 19.5165 20.6604 19.5165C21.5698 19.5165 22.4419 19.1553 23.085 18.5123C23.728 17.8692 24.0892 16.9971 24.0892 16.0877C24.0892 15.1784 23.728 14.3062 23.085 13.6632C22.4419 13.0202 21.5698 12.659 20.6604 12.659C19.7511 12.659 18.8789 13.0202 18.2359 13.6632C17.5929 14.3062 17.2316 15.1784 17.2316 16.0877Z" stroke="#8892B0" stroke-width="2.46144" stroke-linecap="round" stroke-linejoin="round"/>
<path d="M17.2299 16.0857H7.517C5.87157 16.1183 4.30453 16.7948 3.15238 17.97C2.00023 19.1451 1.35486 20.7253 1.35486 22.371C1.35486 24.0168 2.00023 25.5969 3.15238 26.7721C4.30453 27.9472 5.87157 28.6237 7.517 28.6563H10.3723M24.0874 16.0857H27.5162C29.0317 16.0857 30.4852 15.4837 31.5568 14.412C32.6284 13.3404 33.2305 11.887 33.2305 10.3715C33.2305 8.85596 32.6284 7.40252 31.5568 6.33089C30.4852 5.25926 29.0317 4.65723 27.5162 4.65723H14.9407M8.08805 4.65723H1.23047" stroke="#8892B0" stroke-width="2.46144" stroke-linecap="round" stroke-linejoin="round"/>
</svg>
